<?xml version="1.0" encoding="utf-8"?>
<!-- Generator: Adobe Illustrator 23.0.6, SVG Export Plug-In . SVG Version: 6.00 Build 0)  -->
<svg version="1.1" id="Layer_1" xmlns="http://www.w3.org/2000/svg" xmlns:xlink="http://www.w3.org/1999/xlink" x="0px" y="0px"
	 viewBox="0 0 146 83" style="enable-background:new 0 0 146 83;" xml:space="preserve">
<style type="text/css">
	.st0{fill:#042C71;}
	.st1{fill:#F36B1C;}
	.st2{fill:#0B6AB0;}
	.st3{font-family:'AquireBold';}
	.st4{font-size:16.4848px;}
</style>
<path d="M54.58,16.86v41.26h-8.7V35.97l-4.62,4.62l-1.78,1.78L39,42.84l-1.59,1.59l-1.15,1.15l-5.86-5.86l-4.02-4.02l-8.7-8.7V16.86
	h2.16l8.28,8.28l8.14,8.14l16.42-16.42H54.58z M17.68,35.58l8.7,8.69v13.86h-8.7V35.58z"/>
<path d="M92.06,37.71c0,1.01-0.07,2.02-0.22,3.01C90.5,49.85,83.17,57,74.01,58.11l-0.1,0.01H54.84V31.94h8.7v17.48h9.79
	c4.84-0.75,8.77-4.46,9.77-9.27c0.17-0.8,0.25-1.62,0.25-2.44c0-0.79-0.08-1.58-0.23-2.34c-0.57-2.82-2.16-5.35-4.48-7.11
	c-1.42-1.08-3.05-1.81-4.78-2.16c-0.59-0.12-1.2-0.19-1.81-0.22H54.84v-8.72l18.23,0.07c4.45,0.34,8.69,2.12,12.05,5.1
	c3.66,3.24,6.05,7.68,6.73,12.5C91.99,35.76,92.06,36.74,92.06,37.71z"/>
<path d="M114,32l-1.03,2.31l-2.41,5.44l-0.42,0.95h-9.77v8.72h10.59c5.79-0.85,10.14-5.88,10.14-11.74c0-5.86-4.35-10.9-10.14-11.74
	H92.07v-8.7h17.16c5.32,0,10.34,2.09,14.13,5.9c3.86,3.87,5.98,9.04,5.98,14.55c0,5.51-2.13,10.68-5.99,14.55
	c-3.79,3.8-8.81,5.9-14.13,5.9H92V40.7h0V32H114z"/>
<path class="st0" d="M55.58,15.86v41.26h-8.7V34.97l-4.62,4.62l-1.78,1.78L40,41.84l-1.59,1.59l-1.15,1.15l-5.86-5.86l-4.02-4.02
	l-8.7-8.7V15.86h2.16l8.28,8.28l8.14,8.14l16.42-16.42H55.58z M18.68,34.58l8.7,8.69v13.86h-8.7V34.58z"/>
<path class="st1" d="M93.06,36.71c0,1.01-0.07,2.02-0.22,3.01C91.5,48.85,84.17,56,75.01,57.11l-0.1,0.01H55.84V30.94h8.7v17.48
	h9.79c4.84-0.75,8.77-4.46,9.77-9.27c0.17-0.8,0.25-1.62,0.25-2.44c0-0.79-0.08-1.58-0.23-2.34c-0.57-2.82-2.16-5.35-4.48-7.11
	c-1.42-1.08-3.05-1.81-4.78-2.16c-0.59-0.12-1.2-0.19-1.81-0.22H55.84v-8.72l18.23,0.07c4.45,0.34,8.69,2.12,12.05,5.1
	c3.66,3.24,6.05,7.68,6.73,12.5C92.99,34.76,93.06,35.74,93.06,36.71z"/>
<path class="st2" d="M115,31l-1.03,2.31l-2.41,5.44l-0.42,0.95h-9.77v8.72h10.59c5.79-0.85,10.14-5.88,10.14-11.74
	c0-5.86-4.35-10.9-10.14-11.74H93.07v-8.7h17.16c5.32,0,10.34,2.09,14.13,5.9c3.86,3.87,5.98,9.04,5.98,14.55
	c0,5.51-2.13,10.68-5.99,14.55c-3.79,3.8-8.81,5.9-14.13,5.9H93V39.7h0V31H115z"/>
<text transform="matrix(1 0 0 1 17.4863 70.999)" class="st3 st4">Technology</text>
</svg>
